<svg xmlns="http://www.w3.org/2000/svg" width="1280" height="720" viewBox="0 0 1280 720" role="img" aria-labelledby="title desc">
<title id="title">Agentic AI systems landscape</title>
<desc id="desc">A systems map for agentic AI showing the loop, methods, domains, evaluation, safety, and infrastructure.</desc>

<defs>
  <linearGradient id="bgGrad" x1="0" x2="1" y1="0" y2="1">
    <stop offset="0%" stop-color="#F8FAFC"/>
    <stop offset="52%" stop-color="#EFF6FF"/>
    <stop offset="100%" stop-color="#F5F3FF"/>
  </linearGradient>
  <marker id="arrow" markerWidth="10" markerHeight="10" refX="8" refY="3" orient="auto" markerUnits="strokeWidth">
    <path d="M0,0 L0,6 L9,3 z" fill="#64748B" />
  </marker>
</defs>

<rect x="0" y="0" width="1280" height="720" rx="0" fill="url(#bgGrad)" opacity="1"/>
<circle cx="1020" cy="110" r="150" fill="#DBEAFE" opacity="0.45"/>
<circle cx="250" cy="640" r="220" fill="#CCFBF1" opacity="0.38"/>
<text x="640" y="62" font-size="34" font-weight="900" fill="#0F172A" text-anchor="middle" font-family="Inter,Segoe UI,Arial,sans-serif" >Awesome Agentic AI Systems</text>
<text x="640" y="94" font-size="16" font-weight="500" fill="#475569" text-anchor="middle" font-family="Inter,Segoe UI,Arial,sans-serif" >Papers, benchmarks, frameworks, safety resources, and metadata for closed-loop AI agents</text>
<rect x="330" y="120" width="150" height="34" rx="17.0" fill="#EFF6FF" opacity="1" stroke="#2563EB" stroke-width="1"/>
<text x="405.0" y="142.0" font-size="13" font-weight="700" fill="#2563EB" text-anchor="middle" font-family="Inter,Segoe UI,Arial,sans-serif" >50+ papers</text>
<rect x="500" y="120" width="160" height="34" rx="17.0" fill="#ECFDF5" opacity="1" stroke="#0F766E" stroke-width="1"/>
<text x="580.0" y="142.0" font-size="13" font-weight="700" fill="#0F766E" text-anchor="middle" font-family="Inter,Segoe UI,Arial,sans-serif" >24 benchmarks</text>
<rect x="680" y="120" width="160" height="34" rx="17.0" fill="#F5F3FF" opacity="1" stroke="#7C3AED" stroke-width="1"/>
<text x="760.0" y="142.0" font-size="13" font-weight="700" fill="#7C3AED" text-anchor="middle" font-family="Inter,Segoe UI,Arial,sans-serif" >12 frameworks</text>
<rect x="860" y="120" width="170" height="34" rx="17.0" fill="#FFFBEB" opacity="1" stroke="#D97706" stroke-width="1"/>
<text x="945.0" y="142.0" font-size="13" font-weight="700" fill="#D97706" text-anchor="middle" font-family="Inter,Segoe UI,Arial,sans-serif" >living metadata</text>
<g>
<rect x="400" y="192" width="480" height="310" rx="28" fill="#FFFFFF" opacity="1" stroke="#E2E8F0" stroke-width="1"/>
<text x="640" y="232" font-size="24" font-weight="900" fill="#0F172A" text-anchor="middle" font-family="Inter,Segoe UI,Arial,sans-serif" >Agentic system loop</text>
<path d="M640 300 C735 300 785 330 785 355 C785 398 735 420 660 420" fill="none" stroke="#64748B" stroke-width="2.4" stroke-dasharray="6 5" marker-end="url(#arrow)"/>
<path d="M620 420 C535 420 493 397 493 355 C493 313 535 300 620 300" fill="none" stroke="#64748B" stroke-width="2.4" stroke-dasharray="6 5" marker-end="url(#arrow)"/>
<rect x="568" y="252" width="144" height="56" rx="20" fill="#EFF6FF" opacity="1" stroke="#2563EB" stroke-width="2"/>
<text x="640" y="286" font-size="17" font-weight="800" fill="#2563EB" text-anchor="middle" font-family="Inter,Segoe UI,Arial,sans-serif" >Observe</text>
<rect x="688" y="327" width="144" height="56" rx="20" fill="#F5F3FF" opacity="1" stroke="#7C3AED" stroke-width="2"/>
<text x="760" y="361" font-size="17" font-weight="800" fill="#7C3AED" text-anchor="middle" font-family="Inter,Segoe UI,Arial,sans-serif" >Reason</text>
<rect x="568" y="402" width="144" height="56" rx="20" fill="#ECFDF5" opacity="1" stroke="#0F766E" stroke-width="2"/>
<text x="640" y="436" font-size="17" font-weight="800" fill="#0F766E" text-anchor="middle" font-family="Inter,Segoe UI,Arial,sans-serif" >Act</text>
<rect x="448" y="327" width="144" height="56" rx="20" fill="#FFFBEB" opacity="1" stroke="#D97706" stroke-width="2"/>
<text x="520" y="361" font-size="17" font-weight="800" fill="#D97706" text-anchor="middle" font-family="Inter,Segoe UI,Arial,sans-serif" >Verify</text>
<rect x="557" y="337" width="166" height="46" rx="22" fill="#F8FAFC" opacity="1" stroke="#CBD5E1" stroke-width="1"/>
<text x="640" y="366" font-size="15" font-weight="800" fill="#334155" text-anchor="middle" font-family="Inter,Segoe UI,Arial,sans-serif" >Memory + State</text>
<text x="640" y="470" font-size="13" font-weight="600" fill="#475569" text-anchor="middle" font-family="Inter,Segoe UI,Arial,sans-serif" >Feedback updates future decisions</text>
<rect x="70" y="205" width="285" height="128" rx="18" fill="#FFFFFF" opacity="1" stroke="#E2E8F0" stroke-width="1"/>
<rect x="70" y="205" width="8" height="128" rx="18" fill="#2563EB" opacity="1"/>
<text x="92" y="237" font-size="18" font-weight="800" fill="#0F172A" text-anchor="start" font-family="Inter,Segoe UI,Arial,sans-serif" >Foundations</text>
<rect x="92" y="253" width="58" height="4" rx="2" fill="#2563EB" opacity="1"/>
<text x="92" y="283" font-size="13" font-weight="400" fill="#475569" text-anchor="start" font-family="Inter,Segoe UI,Arial,sans-serif" >LLMs, VLMs, tool-use priors,</text>
<text x="92" y="300" font-size="13" font-weight="400" fill="#475569" text-anchor="start" font-family="Inter,Segoe UI,Arial,sans-serif" >instruction tuning,</text>
<text x="92" y="317" font-size="13" font-weight="400" fill="#475569" text-anchor="start" font-family="Inter,Segoe UI,Arial,sans-serif" >reasoning traces.</text>
<rect x="291" y="223" width="42" height="28" rx="14.0" fill="#EFF6FF" opacity="1" stroke="#2563EB" stroke-width="1"/>
<text x="312.0" y="242.0" font-size="15" font-weight="700" fill="#2563EB" text-anchor="middle" font-family="Inter,Segoe UI,Arial,sans-serif" >01</text>
<rect x="70" y="370" width="285" height="128" rx="18" fill="#FFFFFF" opacity="1" stroke="#E2E8F0" stroke-width="1"/>
<rect x="70" y="370" width="8" height="128" rx="18" fill="#0F766E" opacity="1"/>
<text x="92" y="402" font-size="18" font-weight="800" fill="#0F172A" text-anchor="start" font-family="Inter,Segoe UI,Arial,sans-serif" >Optimization</text>
<rect x="92" y="418" width="58" height="4" rx="2" fill="#0F766E" opacity="1"/>
<text x="92" y="448" font-size="13" font-weight="400" fill="#475569" text-anchor="start" font-family="Inter,Segoe UI,Arial,sans-serif" >SFT, preference</text>
<text x="92" y="465" font-size="13" font-weight="400" fill="#475569" text-anchor="start" font-family="Inter,Segoe UI,Arial,sans-serif" >optimization, RL, process</text>
<text x="92" y="482" font-size="13" font-weight="400" fill="#475569" text-anchor="start" font-family="Inter,Segoe UI,Arial,sans-serif" >rewards, verifiers,</text>
<text x="92" y="499" font-size="13" font-weight="400" fill="#475569" text-anchor="start" font-family="Inter,Segoe UI,Arial,sans-serif" >test-time scaling.</text>
<rect x="291" y="388" width="42" height="28" rx="14.0" fill="#ECFDF5" opacity="1" stroke="#0F766E" stroke-width="1"/>
<text x="312.0" y="407.0" font-size="15" font-weight="700" fill="#0F766E" text-anchor="middle" font-family="Inter,Segoe UI,Arial,sans-serif" >02</text>
<rect x="925" y="205" width="285" height="128" rx="18" fill="#FFFFFF" opacity="1" stroke="#E2E8F0" stroke-width="1"/>
<rect x="925" y="205" width="8" height="128" rx="18" fill="#7C3AED" opacity="1"/>
<text x="947" y="237" font-size="18" font-weight="800" fill="#0F172A" text-anchor="start" font-family="Inter,Segoe UI,Arial,sans-serif" >Domains</text>
<rect x="947" y="253" width="58" height="4" rx="2" fill="#7C3AED" opacity="1"/>
<text x="947" y="283" font-size="13" font-weight="400" fill="#475569" text-anchor="start" font-family="Inter,Segoe UI,Arial,sans-serif" >Web, code, desktop, mobile,</text>
<text x="947" y="300" font-size="13" font-weight="400" fill="#475569" text-anchor="start" font-family="Inter,Segoe UI,Arial,sans-serif" >multimodal, embodied,</text>
<text x="947" y="317" font-size="13" font-weight="400" fill="#475569" text-anchor="start" font-family="Inter,Segoe UI,Arial,sans-serif" >scientific, and enterprise</text>
<text x="947" y="334" font-size="13" font-weight="400" fill="#475569" text-anchor="start" font-family="Inter,Segoe UI,Arial,sans-serif" >agents.</text>
<rect x="1146" y="223" width="42" height="28" rx="14.0" fill="#F5F3FF" opacity="1" stroke="#7C3AED" stroke-width="1"/>
<text x="1167.0" y="242.0" font-size="15" font-weight="700" fill="#7C3AED" text-anchor="middle" font-family="Inter,Segoe UI,Arial,sans-serif" >03</text>
<rect x="925" y="370" width="285" height="128" rx="18" fill="#FFFFFF" opacity="1" stroke="#E2E8F0" stroke-width="1"/>
<rect x="925" y="370" width="8" height="128" rx="18" fill="#E11D48" opacity="1"/>
<text x="947" y="402" font-size="18" font-weight="800" fill="#0F172A" text-anchor="start" font-family="Inter,Segoe UI,Arial,sans-serif" >Deployment safety</text>
<rect x="947" y="418" width="58" height="4" rx="2" fill="#E11D48" opacity="1"/>
<text x="947" y="448" font-size="13" font-weight="400" fill="#475569" text-anchor="start" font-family="Inter,Segoe UI,Arial,sans-serif" >Benchmarks, cost,</text>
<text x="947" y="465" font-size="13" font-weight="400" fill="#475569" text-anchor="start" font-family="Inter,Segoe UI,Arial,sans-serif" >reproducibility,</text>
<text x="947" y="482" font-size="13" font-weight="400" fill="#475569" text-anchor="start" font-family="Inter,Segoe UI,Arial,sans-serif" >prompt-injection defense,</text>
<text x="947" y="499" font-size="13" font-weight="400" fill="#475569" text-anchor="start" font-family="Inter,Segoe UI,Arial,sans-serif" >governance, oversight.</text>
<rect x="1146" y="388" width="42" height="28" rx="14.0" fill="#FFF1F2" opacity="1" stroke="#E11D48" stroke-width="1"/>
<text x="1167.0" y="407.0" font-size="15" font-weight="700" fill="#E11D48" text-anchor="middle" font-family="Inter,Segoe UI,Arial,sans-serif" >04</text>
</g>
<rect x="125" y="552" width="1030" height="96" rx="22" fill="#FFFFFF" opacity="1" stroke="#E2E8F0" stroke-width="1"/>
<text x="160" y="586" font-size="20" font-weight="900" fill="#0F172A" text-anchor="start" font-family="Inter,Segoe UI,Arial,sans-serif" >Reusable comparison tuple</text>
<rect x="160" y="606" width="140" height="32" rx="16.0" fill="#F8FAFC" opacity="1" stroke="#2563EB" stroke-width="1"/>
<text x="230.0" y="627.0" font-size="13" font-weight="700" fill="#2563EB" text-anchor="middle" font-family="Inter,Segoe UI,Arial,sans-serif" >Observation</text>
<rect x="320" y="606" width="140" height="32" rx="16.0" fill="#F8FAFC" opacity="1" stroke="#0F766E" stroke-width="1"/>
<text x="390.0" y="627.0" font-size="13" font-weight="700" fill="#0F766E" text-anchor="middle" font-family="Inter,Segoe UI,Arial,sans-serif" >Memory</text>
<rect x="480" y="606" width="140" height="32" rx="16.0" fill="#F8FAFC" opacity="1" stroke="#7C3AED" stroke-width="1"/>
<text x="550.0" y="627.0" font-size="13" font-weight="700" fill="#7C3AED" text-anchor="middle" font-family="Inter,Segoe UI,Arial,sans-serif" >Planning</text>
<rect x="640" y="606" width="140" height="32" rx="16.0" fill="#F8FAFC" opacity="1" stroke="#D97706" stroke-width="1"/>
<text x="710.0" y="627.0" font-size="13" font-weight="700" fill="#D97706" text-anchor="middle" font-family="Inter,Segoe UI,Arial,sans-serif" >Action</text>
<rect x="800" y="606" width="140" height="32" rx="16.0" fill="#F8FAFC" opacity="1" stroke="#E11D48" stroke-width="1"/>
<text x="870.0" y="627.0" font-size="13" font-weight="700" fill="#E11D48" text-anchor="middle" font-family="Inter,Segoe UI,Arial,sans-serif" >Verifier</text>
<rect x="960" y="606" width="140" height="32" rx="16.0" fill="#F8FAFC" opacity="1" stroke="#334155" stroke-width="1"/>
<text x="1030.0" y="627.0" font-size="13" font-weight="700" fill="#334155" text-anchor="middle" font-family="Inter,Segoe UI,Arial,sans-serif" >Oversight</text>
</svg>